<mxfile host="app.diagrams.net" modified="2023-12-01T07:57:26.062Z" agent="Mozilla/5.0 (Macintosh; Intel Mac OS X 10_15_7) AppleWebKit/537.36 (KHTML, like Gecko) Chrome/119.0.0.0 Safari/537.36" etag="aoNc3Db3qpB6h7vvPsXr" version="22.1.5" type="github">
  <diagram name="Page-1" id="dkUPBSfMCu2yQvv3CPs7">
    <mxGraphModel dx="1434" dy="1871" grid="1" gridSize="10" guides="1" tooltips="1" connect="1" arrows="1" fold="1" page="1" pageScale="1" pageWidth="827" pageHeight="1169" math="0" shadow="0">
      <root>
        <mxCell id="0" />
        <mxCell id="1" parent="0" />
        <mxCell id="4E9SO0EViQYKO8b2HINs-1" value="" style="rounded=1;whiteSpace=wrap;html=1;" vertex="1" parent="1">
          <mxGeometry x="100" y="-530" width="120" height="60" as="geometry" />
        </mxCell>
        <mxCell id="4E9SO0EViQYKO8b2HINs-2" value="" style="ellipse;whiteSpace=wrap;html=1;" vertex="1" parent="1">
          <mxGeometry x="340" y="-510" width="120" height="80" as="geometry" />
        </mxCell>
        <mxCell id="4E9SO0EViQYKO8b2HINs-3" value="" style="whiteSpace=wrap;html=1;aspect=fixed;" vertex="1" parent="1">
          <mxGeometry x="140" y="-380" width="80" height="80" as="geometry" />
        </mxCell>
      </root>
    </mxGraphModel>
  </diagram>
</mxfile>
